# xmcd
#
# Track frame offsets: 
#        150
#        11251
#        20513
#        28155
#        37507
#        46966
#        58378
#        66405
#        77959
#        87685
#        99010
#        109648
#        120488
#        129470
#        140512
#        152104
#        164823
#        173417
#        184487
#        194764
#        203162
#        213818
#        224113
#        236701
#        247275
#        254820
#        265010
#        274569
#        282713
#        292344
#
# Disc length: 4013 seconds
#
# Revision: 0
# Processed by: cddbd v1.5.2PL0 Copyright (c) Steve Scherf et al.
# Submitted via: ExactAudioCopy v1.1
#
DISCID=d90fab1e
DTITLE=Various Artist - Cruisin' Country Vol.8
DYEAR=2014
DGENRE=Country
TTITLE0=Ray Hendrix - Smile Of A Clown
TTITLE1=Tompall And The Glases - Sweet Lies
TTITLE2=Waylon Jennings - Another Blue Day
TTITLE3=Dave And Don - Over My Broken Heart
TTITLE4=Hank Snow - Father Time And Mother Love
TTITLE5=Howard Childress - Whoa
TTITLE6=Les Waldrop - They Said It Couldn't Be Done
TTITLE7=Ronnie Hawkins - Mister And Missisippi
TTITLE8=Kenny Roberts - Cheer Up
TTITLE9=Cowboy Copas - Black Cloud Risin
TTITLE10=Ben And Mildred Jackson - Don't Wait
TTITLE11=Lawton Williams - Moon Joe
TTITLE12=Faron Young - There's Not Any Like You Left
TTITLE13=Billy Deaton - I'd Rather Stumble Into Your Arms
TTITLE14=Warren Bros - I Wonder Where You Are Tonight
TTITLE15=Tommy Tucker - Miller's Cave
TTITLE16=Jimmy Newman - Angels Cryin
TTITLE17=Von Star - If It Satiesfies Your Mind
TTITLE18=Rose Madox - There Ain't No Love
TTITLE19=Larry Butler - Foolish Affair
TTITLE20=Elmer Snodgrass - Heartaches Over You
TTITLE21=Dave And Don - I'm Back
TTITLE22=Warren Smith - Book Of Broken Dreams
TTITLE23=Bill Mundy - Whirlwind
TTITLE24=Donna Chrysler - City Lovin Country Style
TTITLE25=Bluegrass Erwin - I Won't Cry Alone
TTITLE26=Don Johnson - Intials In The Tree
TTITLE27=Clyde Pitts - Mister Me
TTITLE28=George Jones - If You Want To Wear A Crown
TTITLE29=Justin Tubb - I'd Know You Anywhere
EXTD=
EXTT0=
EXTT1=
EXTT2=
EXTT3=
EXTT4=
EXTT5=
EXTT6=
EXTT7=
EXTT8=
EXTT9=
EXTT10=
EXTT11=
EXTT12=
EXTT13=
EXTT14=
EXTT15=
EXTT16=
EXTT17=
EXTT18=
EXTT19=
EXTT20=
EXTT21=
EXTT22=
EXTT23=
EXTT24=
EXTT25=
EXTT26=
EXTT27=
EXTT28=
EXTT29=
PLAYORDER=
